# Blender 3.4.1
# www.blender.org
mtllib arrow_centered.mtl
o Cube
v 0.200000 1.000000 -0.200000
v 0.200000 -1.000000 -0.200000
v 0.200000 1.000000 0.200000
v 0.200000 -1.000000 0.200000
v -0.200000 1.000000 -0.200000
v -0.200000 -1.000000 -0.200000
v -0.200000 1.000000 0.200000
v -0.200000 -1.000000 0.200000
vn -0.0000 1.0000 -0.0000
vn -0.0000 -0.0000 1.0000
vn -1.0000 -0.0000 -0.0000
vn -0.0000 -1.0000 -0.0000
vn 1.0000 -0.0000 -0.0000
vn -0.0000 -0.0000 -1.0000
vt 0.625000 0.500000
vt 0.375000 0.500000
vt 0.625000 0.750000
vt 0.375000 0.750000
vt 0.875000 0.500000
vt 0.625000 0.250000
vt 0.125000 0.500000
vt 0.375000 0.250000
vt 0.875000 0.750000
vt 0.625000 1.000000
vt 0.625000 0.000000
vt 0.375000 1.000000
vt 0.375000 0.000000
vt 0.125000 0.750000
s 0
usemtl Material
f 1/1/1 5/5/1 7/9/1 3/3/1
f 4/4/2 3/3/2 7/10/2 8/12/2
f 8/13/3 7/11/3 5/6/3 6/8/3
f 6/7/4 2/2/4 4/4/4 8/14/4
f 2/2/5 1/1/5 3/3/5 4/4/5
f 6/8/6 5/6/6 1/1/6 2/2/6
o Cube.001
v -0.400000 0.880066 0.400000
v 0.000000 2.080066 0.000000
v -0.400000 0.880066 -0.400000
v 0.400000 0.880066 0.400000
v 0.400000 0.880066 -0.400000
vn -0.9487 0.3162 -0.0000
vn -0.0000 0.3162 -0.9487
vn 0.9487 0.3162 -0.0000
vn -0.0000 0.3162 0.9487
vn -0.0000 -1.0000 -0.0000
vt 0.375000 0.000000
vt 0.375000 1.000000
vt 0.125000 0.750000
vt 0.625000 0.250000
vt 0.625000 0.500000
vt 0.625000 0.750000
vt 0.625000 1.000000
vt 0.375000 0.250000
vt 0.125000 0.500000
vt 0.375000 0.750000
vt 0.375000 0.500000
s 0
f 9/15/7 10/18/7 11/22/7
f 11/22/8 10/19/8 13/25/8
f 13/25/9 10/20/9 12/24/9
f 12/24/10 10/21/10 9/16/10
f 11/23/11 13/25/11 12/24/11 9/17/11
