# Blender 3.4.1
# www.blender.org
mtllib suzanne_light.mtl
o suzanne
v 0.404672 0.194725 0.217484
v 0.568909 0.223250 -0.051701
v -0.508960 0.119606 0.012540
v -0.208827 0.071241 0.050580
v -0.375031 0.199345 0.222872
v -0.244732 0.422025 0.232696
v 0.149575 0.237137 0.068121
v -0.020341 0.316248 0.092065
v 0.396789 0.456888 0.233550
v 0.446466 0.446177 -0.056505
v -0.232885 0.538041 0.026671
v -0.511211 0.390629 -0.041821
v 0.040399 0.460556 0.158527
v 0.043895 -0.765948 0.123624
v -0.066323 -0.210811 0.190106
v 0.045622 -0.112378 0.224892
v -0.009846 0.797425 -1.426188
v 0.030166 -0.161880 -1.277344
v 0.275358 -0.128680 -0.029716
v -0.213367 -0.232882 -0.148461
v 0.418856 -0.900304 -0.045209
v 0.818645 0.138704 -0.085012
v -0.721398 0.134595 -0.128089
v 0.847461 0.476286 0.059867
v -0.772562 0.464687 0.067516
v 0.244799 0.378031 0.189717
v -0.505316 0.348912 0.121626
v 0.362014 0.471111 0.225493
v 0.045622 -0.120191 0.178017
v 0.045622 -0.065503 0.170205
v 0.162524 -0.104699 0.211808
v -0.046632 -0.060824 0.237847
v -0.202796 0.828259 0.190315
v 0.320391 0.186281 0.205043
v -0.276741 0.474754 0.208515
v -0.158205 0.387889 0.192372
v -0.184079 0.204615 0.185712
v -0.371761 0.166418 0.151425
v 0.592921 0.299678 0.128227
v 0.287466 0.819098 0.205551
v 0.762831 0.505166 -0.199494
v -0.677448 0.498183 -0.201596
v -0.308826 1.039619 -0.391698
v 0.907533 0.417827 -0.760956
v -0.809253 0.406816 -0.758956
v -0.822438 0.523248 -0.959605
v 0.709457 -0.009591 -0.725257
v -0.625078 0.002723 -0.829916
v 0.781949 0.263902 -1.047717
v 0.198546 -0.393399 -0.264904
v -0.338002 -0.905694 -0.100557
v 0.741651 0.879172 -0.772921
v 0.902712 0.025977 -0.830617
v -1.136377 0.096768 -1.024634
v 1.239773 0.113094 -1.045031
v 1.296518 0.438779 -1.017956
v -1.192789 0.460385 -1.022839
v 0.845855 0.224403 -0.877944
v -0.756079 0.093924 -0.863891
vn -0.4934 -0.8490 0.1891
vn 0.0076 -0.8333 0.5527
vn -0.1530 -0.6194 0.7701
vn 0.2660 0.6415 0.7195
vn 0.6772 0.3216 0.6618
vn 0.3852 0.8075 0.4467
vn -0.3770 0.5765 0.7249
vn -0.0656 0.8741 0.4812
vn -0.6199 0.6142 0.4883
vn 0.9722 0.2201 -0.0804
vn 0.5924 0.7998 0.0973
vn 0.6953 0.6173 0.3683
vn -0.8618 0.5070 -0.0121
vn -0.4541 0.4391 0.7752
vn -0.8454 0.3279 0.4217
vn 0.8398 -0.1269 0.5278
vn 0.9535 0.2761 -0.1210
vn 0.6979 0.1083 0.7080
vn -0.9465 0.2847 -0.1520
vn -0.8588 -0.0942 0.5035
vn -0.7166 0.1182 0.6874
vn 0.3844 0.4087 0.8278
vn 0.8358 0.3496 0.4233
vn 0.4952 0.5599 0.6643
vn 0.5797 -0.5518 0.5996
vn 0.4305 -0.4903 0.7578
vn 0.4372 -0.6257 0.6460
vn -0.2697 -0.1361 0.9533
vn -0.3888 0.0982 0.9161
vn -0.3762 0.1517 0.9140
vn 0.4183 0.2953 0.8590
vn 0.3131 0.4343 0.8446
vn 0.2700 0.5401 0.7972
vn 0.3260 0.0202 0.9452
vn -0.0539 -0.1093 0.9925
vn 0.1698 -0.2058 0.9638
vn -0.6128 0.7902 0.0067
vn -0.6167 -0.2316 0.7523
vn -0.1847 0.7036 0.6862
vn -0.3104 0.3675 0.8767
vn -0.4159 0.6609 0.6247
vn -0.2906 0.7530 0.5904
vn 0.3173 0.0558 -0.9467
vn 0.3105 0.6014 -0.7361
vn -0.2270 0.8476 -0.4797
vn 0.4049 -0.1993 0.8923
vn 0.0474 0.1847 0.9816
vn 0.0170 -0.4253 0.9049
vn -0.4382 0.0339 0.8982
vn -0.6200 0.0316 0.7840
vn -0.0315 -0.1484 0.9884
vn 0.5940 0.6759 0.4363
vn 0.5003 0.8594 -0.1059
vn 0.5399 0.7244 0.4287
vn 0.7067 -0.7075 -0.0089
vn 0.7847 0.6092 -0.1147
vn 0.8780 0.1726 0.4465
vn -0.3212 -0.4257 -0.8459
vn -0.0780 -0.0539 -0.9955
vn -0.4106 -0.1098 -0.9052
vn 0.6924 0.2136 -0.6892
vn 0.8617 0.5030 -0.0668
vn 0.9959 0.0781 0.0459
vn 0.5605 -0.8110 0.1676
vn 0.1417 -0.8985 -0.4156
vn 0.6836 -0.6911 -0.2347
vn -0.2973 0.7635 -0.5733
vn -0.5483 0.7912 -0.2708
vn -0.3224 0.9464 -0.0191
vn -0.9420 -0.3127 -0.1223
vn -0.4722 0.4146 0.7779
vn -0.9887 -0.0400 0.1446
vn 0.7244 0.6474 -0.2368
vn 0.6900 0.7221 0.0495
vn 0.1620 0.2371 -0.9579
vn 0.6215 -0.7556 0.2070
vn 0.5678 -0.6675 0.4817
vn 0.9735 -0.1905 0.1266
vn 0.6179 -0.6413 0.4548
vn 0.2663 -0.0581 0.9621
vn 0.6306 -0.2859 0.7215
vn 0.7532 -0.3954 0.5257
vn 0.5596 -0.0599 0.8266
vn 0.9324 -0.1934 0.3055
vn -0.6261 -0.4233 0.6548
vn 0.1137 0.5389 0.8347
vn -0.5318 -0.1784 0.8279
vn -0.4839 -0.2477 0.8394
vn -0.6369 0.0663 0.7680
vn -0.6295 -0.1839 0.7549
vn -0.3356 -0.0561 0.9403
vn 0.4908 0.3417 0.8015
vn -0.3366 0.0918 0.9372
vn 0.8369 0.5327 -0.1256
vn -0.4580 0.3815 -0.8029
vn 0.2709 0.8633 0.4259
vn -0.3554 -0.7984 -0.4861
vn 0.0100 0.2437 -0.9698
vn -0.0531 -0.8381 -0.5429
vn 0.4830 -0.7002 -0.5258
vn -0.5385 0.2665 -0.7994
vn 0.3246 0.7266 -0.6055
vn 0.4993 0.4909 -0.7139
vn -0.1495 -0.8271 -0.5418
vn -0.3583 0.5939 -0.7204
vn 0.1511 -0.5802 -0.8003
vn 0.3266 -0.7370 -0.5918
vn 0.5514 -0.4683 -0.6904
vn 0.9356 -0.1478 0.3205
vn 0.6604 -0.6148 0.4311
vn 0.1734 -0.4472 0.8775
vn -0.1948 -0.2705 0.9428
vn -0.8119 0.5833 0.0250
vn -0.8510 0.3133 0.4214
vn -0.8807 -0.2087 0.4252
vn -0.2242 -0.9739 0.0350
vn 0.3544 -0.9344 0.0358
vn 0.0385 -0.9634 0.2652
vn 0.7515 -0.2082 0.6261
vn 0.0465 -0.4128 0.9096
vn 0.0707 -0.7655 0.6395
vn -0.2012 -0.7204 0.6638
vn 0.1095 -0.4244 0.8988
vn 0.6702 -0.2307 0.7054
vn -0.2765 0.1898 0.9421
vn -0.7107 -0.1433 0.6887
vn -0.9648 -0.1461 0.2188
vn -0.3658 0.9052 0.2166
vn -0.4045 0.9061 -0.1240
vn -0.7887 0.5745 0.2189
vn 0.9866 -0.0944 -0.1331
vn 0.9297 -0.1664 0.3286
vn 0.7093 0.1787 0.6819
vn -0.2437 -0.4074 0.8801
vn -0.6577 -0.6553 0.3715
vn -0.9431 -0.0589 0.3273
vn -0.0735 -0.2149 0.9739
vn -0.8036 0.4500 0.3896
vn -0.5381 0.1905 0.8211
vn -0.4905 0.3438 0.8008
vn -0.5198 0.5327 0.6679
vn -0.8756 0.1640 0.4544
vn -0.8075 -0.5730 0.1397
vn -0.4589 -0.3545 0.8147
vn -0.3942 0.6340 0.6653
vn -0.4836 0.5271 0.6988
vn -0.7265 0.3677 0.5805
vn -0.7595 0.0904 0.6442
vn 0.3355 0.7033 0.6267
vn 0.6336 0.5055 0.5857
vn 0.6305 0.5111 0.5842
vn 0.5364 0.6821 0.4969
vn -0.6782 -0.7262 0.1121
vn -0.6330 -0.7537 -0.1765
vn -0.1113 -0.9404 -0.3213
vn -0.0904 -0.9656 -0.2437
vn -0.1655 0.5937 0.7875
vn -0.4688 0.2666 0.8421
vn -0.6058 0.3867 0.6953
vn 0.6552 -0.5145 0.5532
vn 0.5879 -0.4011 0.7025
vn 0.5385 -0.3558 0.7638
vn -0.0579 -0.2965 0.9533
vn 0.3057 -0.3389 0.8898
vn 0.2435 -0.1022 0.9645
vn -0.0214 -0.5395 0.8417
vn -0.2993 -0.3450 0.8896
vn -0.2661 -0.2073 0.9414
vn 0.1848 -0.5594 0.8080
vn -0.1281 -0.8680 0.4798
vn 0.0859 -0.8562 0.5095
vn 0.1842 -0.1537 0.9708
vn 0.6092 -0.1511 0.7785
vn 0.4301 0.0290 0.9023
vn -0.5138 0.0253 0.8575
vn -0.6880 -0.1392 0.7122
vn -0.2864 -0.1618 0.9443
vn 0.1201 -0.0578 0.9911
vn -0.0550 -0.0670 0.9962
vn -0.0415 -0.0934 0.9948
vn 0.6421 0.1422 0.7533
vn 0.7139 0.5335 0.4536
vn 0.7990 0.4169 0.4334
vn -0.2328 -0.3195 0.9186
vn -0.0697 -0.3192 0.9451
vn 0.4859 0.4856 0.7267
vn 0.6229 0.2431 0.7436
vn -0.0077 -0.4551 0.8904
vn 0.0010 -0.7796 0.6263
vn 0.1626 -0.1833 -0.9695
vn 0.5837 -0.1540 -0.7972
vn 0.4015 -0.2384 -0.8843
vn -0.6025 0.6721 0.4304
vn -0.5421 0.7261 0.4229
vn -0.5166 0.8484 -0.1156
vn -0.6756 -0.7285 -0.1131
vn -0.8943 0.1135 0.4329
vn -0.7900 0.6025 -0.1138
vn 0.6544 -0.6024 -0.4570
vn -0.1301 -0.8608 -0.4920
vn 0.0811 -0.4974 -0.8637
vn 0.6325 -0.4297 -0.6444
vn 0.7033 -0.6753 -0.2224
vn 0.1791 -0.7652 -0.6184
vn -0.0992 0.9714 0.2159
vn 0.0832 0.7699 0.6327
vn 0.3517 0.9318 0.0893
vn 0.5244 0.7894 0.3191
vn 0.7881 -0.5893 -0.1778
vn 0.9653 0.1454 -0.2171
vn 0.9313 -0.0326 -0.3629
vn -0.9371 -0.0109 -0.3490
vn -0.9731 0.1757 -0.1491
vn -0.8067 -0.5571 -0.1974
vn 0.0435 -0.0103 -0.9990
vn 0.5413 -0.1639 -0.8247
vn 0.1148 -0.4657 -0.8775
vn 0.4669 0.8755 -0.1247
vn 0.1052 0.7721 -0.6267
vn -0.0467 0.9970 -0.0613
vn 0.6416 0.5005 -0.5813
vn 0.6426 -0.1453 -0.7523
vn 0.4956 0.2016 -0.8448
vn -0.5272 0.7827 0.3308
vn -0.7456 0.6638 -0.0588
vn -0.6504 0.7296 0.2115
vn -0.4210 -0.2726 -0.8651
vn -0.6153 -0.4598 -0.6403
vn -0.5327 0.0714 -0.8433
vn -0.3685 0.2168 -0.9040
vn -0.1703 0.8588 0.4832
vn -0.1627 0.6132 0.7730
vn -0.4543 0.8240 0.3384
vn -0.4857 0.7956 -0.3621
vn 0.2738 0.9568 -0.0978
vn -0.3277 0.9346 0.1386
vn 0.3428 0.9342 0.0989
vn -0.2660 0.9531 -0.1444
vn 0.4961 0.7726 -0.3961
vn 0.9577 -0.2725 -0.0922
vn 0.9872 0.0144 0.1587
vn 0.4357 0.4815 0.7605
vn 0.8196 0.5285 0.2211
vn 0.5898 0.3303 0.7369
vn 0.9657 0.2545 -0.0515
vn -0.9986 0.0106 0.0512
vn -0.5946 0.4281 0.6806
vn -0.9132 0.4011 0.0724
vn 0.7691 -0.6052 -0.2054
vn 0.3832 -0.9167 0.1135
vn 0.2457 -0.9684 -0.0436
vn -0.4011 -0.9088 -0.1147
vn -0.5233 -0.8504 0.0544
vn -0.8624 -0.4540 -0.2239
vn 0.9204 -0.3870 -0.0555
vn 0.9606 -0.2233 0.1655
vn 0.4278 0.2649 0.8642
vn 0.1091 0.3502 0.9303
vn 0.0064 0.2304 0.9731
vn 0.6269 0.3450 0.6985
vn 0.5110 -0.1614 0.8443
vn 0.5042 -0.0168 0.8634
vn -0.3564 0.1552 0.9214
vn -0.9972 0.0742 -0.0111
vn -0.4796 -0.0069 0.8774
vn 0.0509 0.9909 -0.1248
vn 0.7325 -0.6549 -0.1859
vn 0.4698 -0.8750 -0.1169
vn -0.1476 -0.2703 -0.9514
vn -0.0436 -0.4497 -0.8921
vn -0.2668 -0.5672 -0.7792
vn -0.0737 -0.8168 -0.5722
s 0
f 3//1 4//2 5//3
f 6//4 8//5 11//6
f 6//7 11//8 12//9
f 2//10 10//11 9//12
f 5//13 6//14 12//15
f 21//16 19//17 31//18
f 20//19 51//20 15//21
f 35//22 13//23 33//24
f 22//25 39//26 34//27
f 34//28 26//29 13//30
f 35//31 34//32 13//33
f 37//34 34//35 35//36
f 16//37 30//38 29//39
f 16//40 30//41 32//42
f 31//43 16//44 32//45
f 31//46 32//47 15//48
f 20//49 15//50 32//51
f 24//52 41//53 40//54
f 22//55 41//56 24//57
f 50//58 51//59 20//60
f 50//61 19//62 21//63
f 50//64 18//65 47//66
f 17//67 46//68 43//69
f 23//70 42//71 45//72
f 52//73 44//74 49//75
f 50//76 47//77 19//78
f 58//79 56//80 44//81
f 53//82 58//83 47//84
f 45//85 59//86 48//87
f 57//88 59//89 45//90
f 57//91 54//92 59//93
f 56//94 49//95 44//96
f 54//97 46//98 59//99
f 55//100 49//101 56//102
f 46//103 54//104 57//105
f 53//106 47//107 49//108
f 19//109 22//110 34//111 31//112
f 5//113 12//114 3//115
f 7//116 2//117 1//118
f 8//119 5//120 4//121
f 6//122 5//123 8//124
f 9//125 7//126 1//127
f 9//128 10//129 7//130
f 1//131 2//132 9//133
f 38//134 23//135 20//136 32//137
f 13//138 26//139 28//140 40//141
f 25//142 23//143 38//144
f 35//145 33//146 25//147 27//148
f 28//149 39//150 24//151 40//152
f 20//153 48//154 18//155 50//156
f 25//157 38//158 27//159
f 22//160 24//161 39//162
f 32//163 37//164 38//165
f 37//166 32//167 34//168
f 14//169 51//170 21//171
f 14//172 21//173 31//174
f 15//175 51//176 14//177
f 31//178 15//179 14//180
f 16//181 31//182 30//183
f 31//184 34//185 30//186
f 30//187 34//188 32//189
f 35//190 36//191 37//192
f 25//193 33//194 42//195
f 23//196 25//197 42//198
f 21//199 51//200 50//201
f 49//202 47//203 18//204
f 43//205 13//206 41//207 52//208
f 47//209 44//210 22//211
f 23//212 45//213 48//214
f 17//215 49//216 18//217
f 52//218 17//219 43//220
f 52//221 49//222 17//223
f 43//224 46//225 42//226
f 18//227 48//228 46//229 17//230
f 42//231 13//232 43//233
f 40//234 41//235 13//236
f 13//237 42//238 33//239
f 22//240 44//241 41//242
f 52//243 41//244 44//245
f 45//246 42//247 46//248
f 19//249 47//250 22//251
f 23//252 48//253 20//254
f 44//255 47//256 58//257
f 53//258 56//259 58//260
f 56//261 53//262 55//263
f 57//264 45//265 46//266
f 55//267 53//268 49//269
f 46//270 48//271 59//272
